<svg width="61" height="61" viewBox="0 0 61 61" fill="none" xmlns="http://www.w3.org/2000/svg">
<path d="M6.875 60.875C5.01875 60.875 3.42969 60.2141 2.10781 58.8922C0.785937 57.5703 0.125 55.9813 0.125 54.125V6.875C0.125 5.01875 0.785937 3.42969 2.10781 2.10781C3.42969 0.785937 5.01875 0.125 6.875 0.125H30.5V6.875H6.875V54.125H54.125V30.5H60.875V54.125C60.875 55.9813 60.2141 57.5703 58.8922 58.8922C57.5703 60.2141 55.9813 60.875 54.125 60.875H6.875ZM22.7375 42.9875L18.0125 38.2625L49.4 6.875H37.25V0.125H60.875V23.75H54.125V11.6L22.7375 42.9875Z" fill="black"/>
</svg>
